<svg viewBox="0 0 30 36" preserveAspectRatio="none" fill="none" xmlns="http://www.w3.org/2000/svg">
<path d="M29.75 1.27C29.14 2.29 27.3 0.41 26.17 0.28C25.82 0.24 25.51 0.17 25.25 0.08C24.95 0.08 24.65 0.06 24.37 0C24.06 0.26 23.62 0.47 23.1 0.58C21.44 0.94 19.9 0.83 18.77 0.75C18.33 0.72 17.6 0.67 17.42 0.71C17.27 0.76 17.12 0.8 16.96 0.83C14.73 1.28 13.07 0.61 12.27 0.29C12.25 0.29 12.24 0.28 12.23 0.27C11.82 0.39 11.37 0.44 10.93 0.43C10.58 0.56 10.16 0.65 9.72 0.67C6.37 0.82 3.14 0.15 0 0.07V33.97C6.83 33.97 14.5 34.21 18.62 34.37C22.68 35.01 24.01 34.12 25.27 35.01C25.45 35.14 25.6 31.91 25.72 31.68C26.45 31.71 27.16 31.43 27.69 30.9C28.27 30.32 28.57 29.5 28.51 28.67C28.34 26.43 28.02 24.3 27.71 22.24C27.37 19.98 27.04 17.81 26.9 15.52C27.97 14.34 28.12 12.01 28.31 8.92C30.11 6.7 30.26 0.43 29.75 1.28V1.27Z" fill="#5B101B"/>
</svg>
