<svg viewBox="0 0 31 35" preserveAspectRatio="none"  fill="none" xmlns="http://www.w3.org/2000/svg">
<path d="M29.9939 0.0684182C28.4839 0.0684182 26.9639 0.158418 25.4539 0.168418C23.5039 0.178418 21.5639 0.188418 19.6339 0.198418C19.6239 0.198418 19.6139 0.208418 19.6039 0.218418C19.2539 0.478418 18.4739 0.898418 17.1439 0.798418C16.5739 0.758418 16.0539 0.598418 15.6539 0.348418C15.3639 0.268418 15.0839 0.168418 14.8439 0.0884182C14.7939 0.0684182 14.7339 0.0484182 14.6739 0.0284182C11.4739 0.788418 5.72394 -0.501582 1.83394 0.238418C0.423937 0.508418 -0.506063 4.03842 0.583937 6.77842C0.743937 7.15842 0.963937 7.49842 1.25394 7.76842C1.22394 8.57842 1.14394 9.55842 1.10394 10.0984C1.04394 10.8984 0.993937 11.5284 0.993937 11.9884C0.993937 12.6284 1.20394 13.2384 1.57394 13.7384C2.59394 15.0884 2.14394 17.2284 1.33394 20.3284C0.953937 21.8084 0.593937 23.2084 0.503937 24.5884C0.473937 25.1084 0.573937 25.6184 0.783937 26.0584C-0.136063 29.9884 -0.476063 34.1484 1.05394 34.7884C3.03394 35.6084 4.70394 33.6984 6.84394 33.8384C8.56394 33.9484 10.7039 34.0884 13.1739 33.7084C13.6539 33.6384 14.1539 33.6584 14.6139 33.7784C15.1239 33.9084 16.3739 33.7784 17.3739 33.6784C18.2539 33.5884 19.2239 33.4884 20.2139 33.4884C21.3939 33.4884 22.6039 33.6284 23.6939 34.0984L23.9139 34.1484C24.4839 34.2884 25.0839 34.4284 25.5939 34.6484C26.9739 34.3684 28.4639 34.0484 30.0139 33.9484V0.0684182H29.9939Z" fill="#5B101B"/>
</svg>
